<mxfile host="app.diagrams.net" modified="2024-06-21T08:38:53.556Z" agent="Mozilla/5.0 (Windows NT 10.0; Win64; x64; rv:127.0) Gecko/20100101 Firefox/127.0" version="24.6.0" etag="Soq87rYYfIc5C236Q6DX" type="github">
  <diagram name="Page-1" id="QnFC_Aewv8Gg6MU-K4Pe">
    <mxGraphModel>
      <root>
        <mxCell id="0" />
        <mxCell id="1" parent="0" />
      </root>
    </mxGraphModel>
  </diagram>
</mxfile>
